  0
SECTION
  2
HEADER
  9
$ACADVER
  1
AC1006
  9
$EXTMIN
 10
0.000000
 20
0.000000
 30
0.000000
  9
$EXTMAX
 10
1031.000000
 20
836.000000
 30
0.000000
  0
ENDSEC
  0
SECTION
  2
ENTITIES
  0
POLYLINE
  8
0
 66
1
 70
1
  0
VERTEX
  8
0
 10
212.000000
 20
577.000000
 42
0.185265
  0
VERTEX
  8
0
 10
212.146483
 20
576.618235
 42
0.090065
  0
VERTEX
  8
0
 10
212.565961
 20
576.293750
 42
0.069914
  0
VERTEX
  8
0
 10
213.189408
 20
576.073807
 42
0.049930
  0
VERTEX
  8
0
 10
213.926676
 20
576.000000
 42
-0.084769
  0
VERTEX
  8
0
 10
214.697252
 20
575.868413
 42
-0.073873
  0
VERTEX
  8
0
 10
215.421729
 20
575.485937
 42
-0.075402
  0
VERTEX
  8
0
 10
215.990924
 20
574.918626
 42
-0.095520
  0
VERTEX
  8
0
 10
216.310674
 20
574.250000
 42
0.049066
  0
VERTEX
  8
0
 10
216.507227
 20
573.717606
 42
0.602595
  0
VERTEX
  8
0
 10
216.676084
 20
573.711790
 42
0.109045
  0
VERTEX
  8
0
 10
216.813383
 20
574.150445
 42
0.010989
  0
VERTEX
  8
0
 10
216.883999
 20
575.250000
 42
0.034635
  0
VERTEX
  8
0
 10
216.844422
 20
576.710880
 42
0.155716
  0
VERTEX
  8
0
 10
216.511616
 20
577.486600
 42
0.171622
  0
VERTEX
  8
0
 10
215.812567
 20
577.883731
 42
0.044204
  0
VERTEX
  8
0
 10
214.500000
 20
578.000000
 42
0.038131
  0
VERTEX
  8
0
 10
213.542644
 20
577.926884
 42
0.057076
  0
VERTEX
  8
0
 10
212.734375
 20
577.706250
 42
0.074992
  0
VERTEX
  8
0
 10
212.182831
 20
577.382936
 42
0.226478
  0
SEQEND
  0
POLYLINE
  8
0
 66
1
 70
1
  0
VERTEX
  8
0
 10
213.000000
 20
574.000000
 42
0.099038
  0
VERTEX
  8
0
 10
213.076342
 20
573.618362
 42
0.097945
  0
VERTEX
  8
0
 10
213.293750
 20
573.293750
 42
0.097945
  0
VERTEX
  8
0
 10
213.618362
 20
573.076342
 42
0.099038
  0
VERTEX
  8
0
 10
214.000000
 20
573.000000
 42
0.099038
  0
VERTEX
  8
0
 10
214.381638
 20
573.076342
 42
0.097945
  0
VERTEX
  8
0
 10
214.706250
 20
573.293750
 42
0.097945
  0
VERTEX
  8
0
 10
214.923658
 20
573.618362
 42
0.099038
  0
VERTEX
  8
0
 10
215.000000
 20
574.000000
 42
0.099038
  0
VERTEX
  8
0
 10
214.923658
 20
574.381638
 42
0.097945
  0
VERTEX
  8
0
 10
214.706250
 20
574.706250
 42
0.097945
  0
VERTEX
  8
0
 10
214.381638
 20
574.923658
 42
0.099038
  0
VERTEX
  8
0
 10
214.000000
 20
575.000000
 42
0.099038
  0
VERTEX
  8
0
 10
213.618362
 20
574.923658
 42
0.097945
  0
VERTEX
  8
0
 10
213.293750
 20
574.706250
 42
0.097945
  0
VERTEX
  8
0
 10
213.076342
 20
574.381638
 42
0.099038
  0
SEQEND
  0
POLYLINE
  8
0
 66
1
 70
1
  0
VERTEX
  8
0
 10
212.000000
 20
395.500000
 42
0.045527
  0
VERTEX
  8
0
 10
212.115743
 20
394.231486
 42
0.152009
  0
VERTEX
  8
0
 10
212.500000
 20
393.500000
 42
0.152009
  0
VERTEX
  8
0
 10
213.231486
 20
393.115743
 42
0.045527
  0
VERTEX
  8
0
 10
214.500000
 20
393.000000
 42
0.045527
  0
VERTEX
  8
0
 10
215.768514
 20
393.115743
 42
0.152009
  0
VERTEX
  8
0
 10
216.500000
 20
393.500000
 42
0.152009
  0
VERTEX
  8
0
 10
216.884257
 20
394.231486
 42
0.045527
  0
VERTEX
  8
0
 10
217.000000
 20
395.500000
 42
0.045527
  0
VERTEX
  8
0
 10
216.884257
 20
396.768514
 42
0.152009
  0
VERTEX
  8
0
 10
216.500000
 20
397.500000
 42
0.152009
  0
VERTEX
  8
0
 10
215.768514
 20
397.884257
 42
0.045527
  0
VERTEX
  8
0
 10
214.500000
 20
398.000000
 42
0.045527
  0
VERTEX
  8
0
 10
213.231486
 20
397.884257
 42
0.152009
  0
VERTEX
  8
0
 10
212.500000
 20
397.500000
 42
0.152009
  0
VERTEX
  8
0
 10
212.115743
 20
396.768514
 42
0.045527
  0
SEQEND
  0
POLYLINE
  8
0
 66
1
 70
1
  0
VERTEX
  8
0
 10
329.250000
 20
397.310674
 42
-0.095520
  0
VERTEX
  8
0
 10
329.918626
 20
396.990924
 42
-0.075402
  0
VERTEX
  8
0
 10
330.485937
 20
396.421729
 42
-0.073873
  0
VERTEX
  8
0
 10
330.868413
 20
395.697252
 42
-0.084769
  0
VERTEX
  8
0
 10
331.000000
 20
394.926676
 42
0.049930
  0
VERTEX
  8
0
 10
331.073807
 20
394.189408
 42
0.069914
  0
VERTEX
  8
0
 10
331.293750
 20
393.565961
 42
0.090065
  0
VERTEX
  8
0
 10
331.618235
 20
393.146483
 42
0.185265
  0
VERTEX
  8
0
 10
332.000000
 20
393.000000
 42
0.226478
  0
VERTEX
  8
0
 10
332.382936
 20
393.182831
 42
0.074992
  0
VERTEX
  8
0
 10
332.706250
 20
393.734375
 42
0.057076
  0
VERTEX
  8
0
 10
332.926884
 20
394.542644
 42
0.038131
  0
VERTEX
  8
0
 10
333.000000
 20
395.500000
 42
0.044204
  0
VERTEX
  8
0
 10
332.883731
 20
396.812567
 42
0.171622
  0
VERTEX
  8
0
 10
332.486600
 20
397.511616
 42
0.155716
  0
VERTEX
  8
0
 10
331.710880
 20
397.844422
 42
0.034635
  0
VERTEX
  8
0
 10
330.250000
 20
397.883999
 42
0.010989
  0
VERTEX
  8
0
 10
329.150445
 20
397.813383
 42
0.109045
  0
VERTEX
  8
0
 10
328.711790
 20
397.676084
 42
0.602595
  0
VERTEX
  8
0
 10
328.717606
 20
397.507227
 42
0.049066
  0
SEQEND
  0
POLYLINE
  8
0
 66
1
 70
1
  0
VERTEX
  8
0
 10
328.000000
 20
395.000000
 42
0.099038
  0
VERTEX
  8
0
 10
328.076342
 20
394.618362
 42
0.097945
  0
VERTEX
  8
0
 10
328.293750
 20
394.293750
 42
0.097945
  0
VERTEX
  8
0
 10
328.618362
 20
394.076342
 42
0.099038
  0
VERTEX
  8
0
 10
329.000000
 20
394.000000
 42
0.099038
  0
VERTEX
  8
0
 10
329.381638
 20
394.076342
 42
0.097945
  0
VERTEX
  8
0
 10
329.706250
 20
394.293750
 42
0.097945
  0
VERTEX
  8
0
 10
329.923658
 20
394.618362
 42
0.099038
  0
VERTEX
  8
0
 10
330.000000
 20
395.000000
 42
0.099038
  0
VERTEX
  8
0
 10
329.923658
 20
395.381638
 42
0.097945
  0
VERTEX
  8
0
 10
329.706250
 20
395.706250
 42
0.097945
  0
VERTEX
  8
0
 10
329.381638
 20
395.923658
 42
0.099038
  0
VERTEX
  8
0
 10
329.000000
 20
396.000000
 42
0.099038
  0
VERTEX
  8
0
 10
328.618362
 20
395.923658
 42
0.097945
  0
VERTEX
  8
0
 10
328.293750
 20
395.706250
 42
0.097945
  0
VERTEX
  8
0
 10
328.076342
 20
395.381638
 42
0.099038
  0
SEQEND
  0
ENDSEC
  0
EOF
